#!OML:ASF F:\VICON\USERDATA\INSTALL\rory3\rory3.ASF
:FULLY-SPECIFIED
:DEGREES
106
root -0.9113867539825982 17.59049901173746 18.6531542011662 4.205361243857504 -2.9431011606325668 -1.5224301996204677
lfemur -14.13686343593101 6.494355979494369 -22.090315785272768
ltibia 48.89070841681575
lfoot 3.873531016508866 -14.00801134378608
ltoes -12.37227481868962
rfemur -22.699046528758267 5.425111005388347 26.384191264505414
rtibia 104.86265246743102
rfoot -1.6374874795475476 -9.222147923953885
rtoes -2.895084926043353
lowerback 14.9246344835222 2.027425013252197 1.4055426521170613
upperback -0.44760856991699743 3.117956789597257 0.7482359743317095
thorax -9.016419760333372 1.5172669423365581 -1.1657500750485827
lowerneck -19.828493532179387 -4.425985595704425 -1.4872530556488206
upperneck 13.983524192760097 -6.325175558243339 3.7383617810622325
head 8.133297943568433 -2.60516722707629 0.6633843676585277
lclavicle -2.049053316092154e-17 4.2580992003501593e-16
lhumerus -51.50596088707695 -9.00057956459215 92.89681438175595
lradius 92.12591547288876
lwrist 34.59728791719769
lhand -26.421138041171616 5.364227582233515
lfingers 7.125019999999998
lthumb 0.9397861422462568 34.96455515562
rclavicle -2.049053336809839e-17 4.2580991989774684e-16
rhumerus -43.455111516231796 12.62535095322889 -93.41624061537273
rradius 99.15361869212438
rwrist -21.152303872254087
rhand -19.35753924665496 44.27659059528446
rfingers 7.125019999999998
rthumb 6.300421984033091 14.698423592647076
107
root -0.9052097510068978 17.64719521142266 19.04513406704379 4.27458048734108 -2.939466020964811 -1.5723569291672332
lfemur -13.572522147658502 6.044171271915433 -22.058031767186307
ltibia 49.71861586658936
lfoot 4.657983256420842 -13.87109999585872
ltoes -11.909358653066274
rfemur -23.35616333459131 5.347925028353377 26.420914695152447
rtibia 104.23116730618341
rfoot -1.0968841168473906 -9.106883671064741
rtoes -5.272641353122272
lowerback 14.86433448453494 2.02107920841489 1.515750031913332
upperback -0.5156135841769127 3.1510445654296264 0.82980656009273
thorax -9.011385164712735 1.5251583188380273 -1.2543283133103227
lowerneck -19.546422320493207 -4.48179472924339 -1.4797577136990194
upperneck 14.163791423621095 -6.409384043340751 3.668702767931538
head 8.174132770908349 -2.6580444071763525 0.6421838460847494
lclavicle -2.0490533160015117e-17 4.258099200354792e-16
lhumerus -51.48998364717982 -8.904187041129637 92.9327073353491
lradius 91.29484385330663
lwrist 34.56216035856931
lhand -26.144850808837763 4.834409855809973
lfingers 7.125019999999998
lthumb 1.0375574124356821 34.11331566768919
rclavicle -2.0490533365777377e-17 4.258099198991089e-16
rhumerus -43.74146415830093 12.568759312432165 -93.32556691496728
rradius 99.29435463732338
rwrist -21.25458123421395
rhand -19.379125495824386 44.73377470839093
rfingers 7.125019999999998
rthumb 6.172039682102726 14.926511811820314
108
root -0.8971361687262224 17.689969754717964 19.43724170020351 4.299974289298525 -2.9274331353462744 -1.603893452815655
lfemur -13.07599292053129 5.598219295501961 -22.035082393648672
ltibia 50.62153879493015
lfoot 4.887879336597358 -13.93398011416892
ltoes -12.735662030897725
rfemur -23.89282527269932 5.200225684926448 26.435074706102448
rtibia 103.56165141330236
rfoot -0.7684437567221156 -9.191539753148598
rtoes -6.97087003055083
lowerback 14.807804350901709 2.022090119037 1.6236991907714562
upperback -0.558890315729203 3.191080059433619 0.8833714188028449
thorax -8.93636728869568 1.5418061555192757 -1.33977550878615
lowerneck -19.296142522397997 -4.552354144694205 -1.4834874224443968
upperneck 14.363039394467469 -6.524477039715305 3.6203123212891994
head 8.221902964644661 -2.7222358857638875 0.6282809067616695
lclavicle -2.0490533162445394e-17 4.2580992003375026e-16
lhumerus -51.21115007599422 -8.868086153856535 93.05791390334714
lradius 90.56261774185332
lwrist 34.54145770987491
lhand -25.93428542932065 4.594630223665969
lfingers 7.125019999999998
lthumb 1.1373843338822676 33.667390622085996
rclavicle -2.049053336119522e-17 4.2580991990186395e-16
rhumerus -43.9908451856569 12.482799128893669 -93.22668979283002
rradius 99.42473572788865
rwrist -21.391824546740676
rhand -19.428718475547804 45.003575550136524
rfingers 7.125019999999998
rthumb 6.094695706453794 15.069234172260572
109
root -0.8893440972377007 17.705784860706704 19.841938780288977 4.274365091653563 -2.890916919181803 -1.555615477779528
lfemur -12.653837496294878 5.187830326065441 -22.059631176078526
ltibia 51.61684171030189
lfoot 6.425499947856326 -13.44236941061676
ltoes -12.755349365493291
rfemur -24.42072287082094 5.030509265368247 26.344913750610523
rtibia 102.96997947295546
rfoot -0.2812388933745851 -9.266510271289782
rtoes -8.144539124318772
lowerback 14.766429197713771 2.0272453311536345 1.673926522158636
upperback -0.5944843133586911 3.235361008505583 0.9190649756827238
thorax -8.84845293749251 1.557634433202577 -1.4208374761985068
lowerneck -19.130427057529992 -4.63118310752748 -1.4911032246072917
upperneck 14.545817231905488 -6.651671832247238 3.578333372549666
head 8.279949826825773 -2.788534468122026 0.6115873596051924
lclavicle -2.0490533164427025e-17 4.258099200325444e-16
lhumerus -50.89144718070147 -8.840161730996604 93.19108083351009
lradius 89.97018513841664
lwrist 34.585419410849155
lhand -25.98827442830997 4.134699908910737
lfingers 7.125019999999998
lthumb 1.3133816203942854 34.06489442919844
rclavicle -2.0490533362633763e-17 4.258099199010113e-16
rhumerus -44.250494978850696 12.36753694470554 -93.1342374426015
rradius 99.55856375136246
rwrist -21.43024854024329
rhand -19.52659957385166 45.14060064412199
rfingers 7.125019999999998
rthumb 6.042801767631054 15.224844184037234
